<svg width="97" height="123" viewBox="0 0 97 123" fill="none" xmlns="http://www.w3.org/2000/svg">
<g clip-path="url(#clip0_461_309)">
<path d="M4.56055 116.182L4.55176 116.135C2.42204 105.137 1.38771 98.8628 0.959961 92.4966V92.4956L0.811523 90.187C0.185441 79.8045 0.494816 74.6448 1.93066 64.2759L2.25586 61.9702C4.25108 47.8541 7.80306 34.4115 11.1641 21.6978C12.6536 16.0594 14.105 10.5618 15.2568 5.68408C15.3168 5.43204 15.4036 5.18715 15.5137 4.95264L15.5186 4.94189L15.5234 4.93018C16.0751 3.59121 17.0194 2.45064 18.2324 1.65967C19.4456 0.868684 20.8705 0.464114 22.3184 0.499512H22.3193C22.5695 0.505294 22.8189 0.530072 23.0654 0.572754L23.0713 0.57373L29.2715 1.57373L29.2793 1.57471C29.6097 1.62264 29.9306 1.72179 30.2305 1.86865L30.3994 1.95166L30.582 1.90283C30.8663 1.82586 31.166 1.8258 31.4502 1.90283L31.4775 1.90869C33.0543 2.24065 34.1964 3.03141 35.0342 4.45068C35.8897 5.90017 36.4405 8.02801 36.7432 11.0493V11.0503C37.2192 15.7017 37.1314 22.7364 36.8711 33.0669L36.8584 33.5776L37.3691 33.5796L59.2393 33.6597L59.7988 33.6616L59.7383 33.106C59.068 26.9451 58.7744 20.7488 58.8604 14.5522C59.1142 8.81363 60.1561 5.76158 62.0576 3.92725C63.9787 2.0742 66.8678 1.36157 71.1504 0.581543L71.1572 0.580566L71.1641 0.578613C71.4095 0.526571 71.6602 0.500081 71.9111 0.499512C75.7043 0.499623 79.4311 2.42334 80.4248 6.12158L80.5098 6.49561V6.49658C81.2638 10.3272 82.4415 14.5846 83.7539 19.1147L85.1006 23.73C87.9709 33.5509 91.0916 44.3923 92.916 56.4253H92.917C94.8533 69.1081 96.0994 79.1412 95.5234 91.4536L95.4619 92.6519C95.1859 97.5607 94.4374 102.432 93.2266 107.197H93.2256L93.2236 107.209C93.0312 108.057 92.8739 108.912 92.7529 109.772L92.6436 110.634C92.2606 113.532 91.8817 116.366 90.7607 118.518C90.2068 119.582 89.4791 120.461 88.4912 121.092C87.5031 121.724 86.2227 122.128 84.5322 122.19H84.4199L13.54 122.36H13.1133C11.3835 122.421 9.66431 122.069 8.09766 121.333C7.1564 120.825 6.34596 120.105 5.73145 119.229C5.12009 118.358 4.72004 117.356 4.56055 116.304V116.182Z" stroke="#737373"/>
<path d="M28.0342 5.81689C26.2827 14.152 24.9409 23.5333 23.8037 32.7388L23.8008 32.7622V32.7856C23.7596 34.2526 23.985 35.5522 24.6797 36.4849C25.3958 37.446 26.5331 37.9197 28.0781 37.8901L67.6289 38.02H67.6611L67.6924 38.0161C69.2503 37.82 70.4108 37.2353 71.0869 36.2085C71.7505 35.2005 71.8765 33.8715 71.6172 32.3325C70.827 21.9988 69.6703 12.4248 67.9717 5.59326L71.8916 4.87061C72.6478 4.87591 73.6234 5.02558 74.4668 5.40967C75.3196 5.79802 75.9844 6.3982 76.2246 7.28271C77.6453 14.2219 80.03 21.8474 82.4072 30.1216C84.7907 38.4173 87.1752 47.3922 88.6152 57.0737L88.6162 57.0757C90.5064 69.4573 92.0863 80.8853 91.2412 92.7817C90.8983 97.3101 90.1501 101.799 89.0059 106.194L89.0049 106.199C88.7166 107.352 88.5401 108.686 88.3672 110.007C88.1926 111.342 88.0215 112.668 87.748 113.854C87.4733 115.046 87.1062 116.038 86.5732 116.732C86.0593 117.401 85.3859 117.801 84.4199 117.82L13.5488 117.989C11.908 117.959 10.8715 117.837 10.1699 117.459C9.52369 117.112 9.0904 116.503 8.80762 115.25C6.67901 104.316 5.33241 96.6725 4.90723 89.0044C4.50879 81.8183 4.91987 74.5955 6.27246 64.6147L6.55469 62.5806C9.42894 42.5208 15.4654 23.8357 19.4785 6.69971C19.6938 6.14452 20.0749 5.66866 20.5703 5.3374C21.0665 5.00567 21.6527 4.83631 22.249 4.8501L28.0342 5.81689ZM63.8184 11.3179C64.2059 13.3945 64.5709 15.6337 64.8848 18.0054V18.0073C65.4694 22.3274 65.9456 27.3122 66.3438 32.6401H64.3965C63.7591 26.6652 63.4796 20.6574 63.5605 14.6489C63.5807 13.5337 63.6677 12.4216 63.8184 11.3179ZM32.1963 12.4019C32.5512 16.8044 32.4747 23.302 32.2324 32.5298H29.2275C29.787 28.0446 30.3821 23.6182 31.0146 19.5063L31.0205 19.4683V19.4575C31.384 17.0998 31.773 14.7483 32.1963 12.4019Z" stroke="#737373"/>
<path fill-rule="evenodd" clip-rule="evenodd" d="M67.0004 33.4702C67.0004 33.5802 66.9204 33.6502 67.0004 33.5402C67.0804 33.4302 67.0004 33.5402 67.0004 33.4702Z" fill="#737373"/>
<path d="M76.7744 58.2153L76.1738 61.5269L70.7236 61.5005L70.2217 61.4976V64.7583L70.709 64.77L75.6074 64.8872L75.5352 67.7495L70.5732 67.6304L70.0615 67.6177V70.6187L70.5488 70.6304L76.668 70.7769L76.584 74.0972L65.583 73.8315L65.9785 57.9517L76.7744 58.2153ZM54.2988 57.7368L54.1416 64.1274L54.1289 64.6401H55.2197L55.25 64.1733C55.2753 63.7893 55.3626 63.4116 55.5078 63.0552L58.1445 57.8364L62.8574 57.9507L58.9678 65.4399L58.8545 65.6567L58.957 65.8794L62.6211 73.8491L57.9121 73.728L55.3887 67.9224C55.2605 67.5575 55.191 67.1742 55.1816 66.7876L55.1729 66.4468L54.8525 66.3306L54.7422 66.2905L54.0889 66.0522L54.0713 66.7476L53.9033 73.5991L49.5029 73.5103L49.8984 57.6313L54.2988 57.7368ZM43.6113 57.4878L47.376 73.4839L42.7197 73.3696L42.2412 71.0679L42.1602 70.6802L41.7637 70.6704L37.3135 70.5601L36.917 70.5503L36.8174 70.9351L36.2383 73.1616L31.5293 73.0464L36.0352 57.2603L43.6113 57.4878ZM31.9346 57.1978L31.8271 60.4868L28.4141 60.3999L27.9131 60.3872L27.9014 60.8882L27.6221 72.9878L23.2227 72.8823L23.5215 60.8228L23.5332 60.3228L23.0342 60.3101L19.623 60.2231L19.708 56.9019L31.9346 57.1978ZM39.0879 61.9136L37.8574 66.6138L37.6973 67.2251L38.3291 67.2397L40.8193 67.3003L41.4512 67.3149L41.3203 66.6968L40.3203 61.9468L40.2402 61.5659L39.8506 61.5503L39.5908 61.5405L39.1895 61.5249L39.0879 61.9136Z" stroke="#737373"/>
<path d="M72.7861 81.9292L74.042 87.5493L74.1299 87.9399H75.0986L75.2012 87.5757L76.7559 82.0483L81.6289 82.1626L76.7207 93.6431L76.6826 93.731L76.6807 93.8267L76.5732 97.9165L72.1719 97.8032L72.2695 93.7124L72.2725 93.6167L72.2393 93.5278L67.9326 81.8071L72.7861 81.9292ZM64.3809 81.6899L68.1445 97.687L63.4102 97.5884L62.9404 95.2896L62.8604 94.8999L62.4629 94.8901L58.0127 94.7798L57.6162 94.77L57.5156 95.1548L56.9258 97.4292L52.3076 97.3159L56.8145 81.5083L64.3809 81.6899ZM35.8086 80.9683L36.7627 89.9927L36.8105 90.4399H37.8174L37.9072 90.0532L39.9941 81.0708L43.3076 81.1577L44.918 90.2271L44.9912 90.6401H46.0059L46.0732 90.2202L47.5156 81.3091L52.1924 81.4253L49.3145 97.2397L43.1514 97.0903L42.1328 91.2544L42.0605 90.8403H40.9111L40.8223 91.229L39.5039 96.9995L33.2793 96.8501L31.1807 80.854L35.8086 80.9683ZM26.5713 80.7905L30.335 96.7837L25.6787 96.6694L25.1992 94.3687L25.1191 93.98L24.7227 93.9702L20.2627 93.8599L19.8711 93.8511L19.7676 94.229L19.1504 96.4907L14.4873 96.3755L18.9941 80.6089L26.5713 80.7905ZM59.8564 86.1831L58.626 90.8735L58.4658 91.4849L59.0977 91.4995L61.5879 91.5601L62.2197 91.5747L62.0889 90.9575L61.0889 86.2075L61.0059 85.8101H59.9541L59.8564 86.1831ZM22.0459 85.2437L20.8164 89.9438L20.6562 90.5552L21.2881 90.5698L23.7783 90.6304L24.4092 90.645L24.2793 90.0269L23.2793 85.2769L23.1992 84.895L22.8096 84.8804L22.5488 84.8706L22.1484 84.855L22.0459 85.2437Z" stroke="#737373"/>
</g>
<defs>
<clipPath id="clip0_461_309">
<rect width="96.17" height="122.88" fill="white"/>
</clipPath>
</defs>
</svg>
